<svg id="Layer_1" data-name="Layer 1" xmlns="http://www.w3.org/2000/svg" viewBox="0 0 1222.36 140.4"><defs><style>.cls-1,.cls-2{fill:#fff;}.cls-2{font-size:130px;font-family:Raleway-Medium, Raleway;font-weight:500;}.cls-3{letter-spacing:-0.07em;}</style></defs><title>logo-long</title><path class="cls-1" d="M142,53.84V124.3h-11.7V32h9.1l57.2,71.89V32.13h11.7V124.3h-9.88Z" transform="translate(-14.97 -13.53)"/><path class="cls-1" d="M59.65,14.43A44.68,44.68,0,0,0,15,59.1q0,.8,0,1.59v.13c0,.55.06,1.1.1,1.66s.07.83.11,1.24c.09.8.2,1.6.32,2.41l.21,1.23c0,.25.08.5.14.75,6.3,33.16,43.77,70.68,43.77,70.68S98,100.71,103.63,67c.08-.4.14-.79.2-1.19s.11-.82.16-1.24c.07-.61.14-1.22.19-1.83h0c0-.62.09-1.23.11-1.84a1.69,1.69,0,0,0,0-.23c0-.52,0-1.05,0-1.57A44.68,44.68,0,0,0,59.65,14.43Zm0,69.2A24.53,24.53,0,1,1,84.18,59.1,24.53,24.53,0,0,1,59.65,83.63Z" transform="translate(-14.97 -13.53)"/><text class="cls-2" transform="translate(203.03 111.15)"><tspan class="cls-3">T</tspan><tspan x="71.11" y="0">ARIO SUMMER</tspan></text></svg>