<svg id="Layer_1" data-name="Layer 1" xmlns="http://www.w3.org/2000/svg" viewBox="0 0 175.36 124.36"><defs><style>.cls-1{fill:#fff;}.cls-2{fill:#010101;}</style></defs><title>logo-short</title><path class="cls-1" d="M124,44.54V115h-11.7V22.7h9.1l57.2,71.89V22.83h11.7V115h-9.88Z" transform="translate(-14.97 -5.13)"/><path class="cls-2" d="M15.74,58.06a41.19,41.19,0,0,1-.64-4.88A49.07,49.07,0,0,0,15.74,58.06Z" transform="translate(-14.97 -5.13)"/><path class="cls-1" d="M59.65,5.13A44.68,44.68,0,0,0,15,49.8q0,.8,0,1.59v.13c0,.55.06,1.1.1,1.66s.07.83.11,1.24c.09.8.2,1.6.32,2.41l.21,1.23c0,.25.08.5.14.75,6.3,33.16,43.77,70.68,43.77,70.68s38.36-38.08,44-71.78c.08-.4.14-.79.2-1.19s.11-.82.16-1.24c.07-.61.14-1.22.19-1.83h0c0-.62.09-1.23.11-1.84a1.69,1.69,0,0,0,0-.23c0-.52,0-1,0-1.57A44.68,44.68,0,0,0,59.65,5.13Zm0,69.2A24.53,24.53,0,1,1,84.18,49.8,24.53,24.53,0,0,1,59.65,74.33Z" transform="translate(-14.97 -5.13)"/><path class="cls-2" d="M104.29,51.6c0,1.25-.15,2.47-.3,3.68C104.14,54.05,104.24,52.82,104.29,51.6Z" transform="translate(-14.97 -5.13)"/></svg>